<svg width="18" height="18" viewBox="0 0 18 18" fill="none" xmlns="http://www.w3.org/2000/svg">
<path fill-rule="evenodd" clip-rule="evenodd" d="M17.7941 0.12693C17.8585 0.179734 17.9104 0.246182 17.946 0.321476C17.9816 0.39677 18.0001 0.47903 18 0.562318V16.3128C17.9999 16.4428 17.9548 16.5687 17.8724 16.6692C17.7899 16.7697 17.6752 16.8386 17.5477 16.8641L11.9227 17.9891C11.85 18.0036 11.775 18.0036 11.7023 17.9891L6.1875 16.8866L0.67275 17.9891C0.591175 18.0054 0.506998 18.0034 0.426286 17.9833C0.345573 17.9631 0.270333 17.9253 0.205987 17.8726C0.141641 17.8199 0.08979 17.7535 0.0541707 17.6783C0.0185515 17.6032 5.02343e-05 17.521 0 17.4378L0 1.68735C7.85048e-05 1.55736 0.0451756 1.4314 0.127624 1.3309C0.210072 1.2304 0.324782 1.16156 0.45225 1.13608L6.07725 0.0110513C6.15003 -0.00349619 6.22497 -0.00349619 6.29775 0.0110513L11.8125 1.11358L17.3273 0.0110513C17.4088 -0.00535637 17.493 -0.00347361 17.5737 0.016564C17.6544 0.0366016 17.7297 0.0742952 17.7941 0.12693ZM11.25 2.14862L6.75 1.24859V15.8515L11.25 16.7516V2.14862ZM12.375 16.7516L16.875 15.8515V1.24859L12.375 2.14862V16.7516ZM5.625 15.8515V1.24859L1.125 2.14862V16.7516L5.625 15.8515Z" fill="white"/>
</svg>
