<svg width="60" height="60" viewBox="0 0 60 60" fill="none" xmlns="http://www.w3.org/2000/svg">
<g filter="url(#filter0_d_18_362)">
<path d="M30 42C41.0457 42 50 33.0457 50 22C50 10.9543 41.0457 2 30 2C18.9543 2 10 10.9543 10 22C10 33.0457 18.9543 42 30 42Z" fill="#0082DA"/>
<path d="M35.0276 22.782H31.4589V35.8563H26.0519V22.782H23.4803V18.1872H26.0519V15.2139C26.0519 13.0876 27.0619 9.75806 31.507 9.75806L35.5121 9.77481V14.2349H32.6062C32.1295 14.2349 31.4592 14.473 31.4592 15.4873V18.1915H35.5L35.0276 22.782Z" fill="white"/>
</g>
<defs>
<filter id="filter0_d_18_362" x="0" y="0" width="60" height="60" filterUnits="userSpaceOnUse" color-interpolation-filters="sRGB">
<feFlood flood-opacity="0" result="BackgroundImageFix"/>
<feColorMatrix in="SourceAlpha" type="matrix" values="0 0 0 0 0 0 0 0 0 0 0 0 0 0 0 0 0 0 127 0" result="hardAlpha"/>
<feOffset dy="8"/>
<feGaussianBlur stdDeviation="5"/>
<feColorMatrix type="matrix" values="0 0 0 0 0.611765 0 0 0 0 0.643137 0 0 0 0 0.662745 0 0 0 0.2 0"/>
<feBlend mode="normal" in2="BackgroundImageFix" result="effect1_dropShadow_18_362"/>
<feBlend mode="normal" in="SourceGraphic" in2="effect1_dropShadow_18_362" result="shape"/>
</filter>
</defs>
</svg>
